# xmcd
#
# Track frame offsets:
#	150
#	16577
#	33004
#	49431
#	62708
#	83335
#	96762
#	113264
#	129766
#	147018
#	164795
#	206422
#	221349
#	239651
#	256528
#	272730
#	293507
#	310084
#	325591
#
# Disc length: 4545 seconds
#
# Revision: 0
# Processed by: cddbd v1.4PL0 Copyright (c) Steve Scherf et al.
# Submitted via: audiograbber 1.80
#
DISCID=ef11bf13
DTITLE=Enzo Gusman - Maltin U Ghawdxin
DYEAR=1900
DGENRE=
TTITLE0=Philip Vella - Enzo Gusman - Maltin U Ghawdxin
TTITLE1=Edward Briffa - Enzo Gusman - X'Affarijiet Dawn?
TTITLE2=Enzo Gusman - Inhossni Kburi Bik
TTITLE3=Bokka Ta' Katakombi - Edward Briffa
TTITLE4=Bajda U Hamra - Edward Briffa
TTITLE5=Viva Malta - Freddie Portelli
TTITLE6=Paul Abela - Alfred C.Sant - L-Ahhar Biwi F'Wied Il-Ghasel
TTITLE7=Enzo Gusman - Marcia Axisa - X'Gharukaza!!!
TTITLE8=Karm Fenech - L-Ghannej (dwett ma' Carmen Gusman)
TTITLE9=Frank O'Neal - Imhabba F'Kemmuna
TTITLE10=Kikiel Abela - L-Avukat Tal-Karozzin
TTITLE11=Marica Axisa - Alfred E. Baldacchino - Id-Dinja Tan-Numri
TTITLE12=Edward Briffa - Ir-Reffiegh
TTITLE13=Enzo Gusman - Telefonata Minghand Il-Mulej!
TTITLE14=Philip Vella - John Attard - Missier! Missier!
TTITLE15=Dom-Quercetti - Anas.Cuschieri - Viva Dejjem Is-Sultana
TTITLE16=Enzo Gusman - Philip Vella - Don't Ever Go Away!
TTITLE17=Sam Mifsud - Laurie Mifsud - The Maltese Islands
TTITLE18=Philip Vella - BONUS TRACK - Nittama (Winner Malta Int. Song Festival 
TTITLE18=2000)
EXTD=
EXTT0=
EXTT1=
EXTT2=
EXTT3=
EXTT4=
EXTT5=
EXTT6=
EXTT7=
EXTT8=
EXTT9=
EXTT10=
EXTT11=
EXTT12=
EXTT13=
EXTT14=
EXTT15=
EXTT16=
EXTT17=
EXTT18=
PLAYORDER=
